<svg width="32" height="32" viewBox="0 0 32 32" fill="none" xmlns="http://www.w3.org/2000/svg">
<path d="M26.6667 29.3334H5.33335C4.62611 29.3334 3.94783 29.0524 3.44774 28.5523C2.94764 28.0522 2.66669 27.3739 2.66669 26.6667V12.0654C2.68885 11.6246 2.81839 11.196 3.04404 10.8167C3.26968 10.4375 3.58459 10.1191 3.96135 9.88937L14.628 3.48937C15.0423 3.24095 15.5163 3.10974 15.9994 3.10974C16.4824 3.10974 16.9564 3.24095 17.3707 3.48937L28.0374 9.88937C28.8387 10.3734 29.3307 11.24 29.3334 12.176V26.6667C29.3334 27.3739 29.0524 28.0522 28.5523 28.5523C28.0522 29.0524 27.3739 29.3334 26.6667 29.3334ZM5.33335 13.1574V26.6667H26.6667V13.1574L16 20.268L5.33335 13.1574ZM16 5.77603L7.08802 11.1227L16 17.064L24.9107 11.1227L16 5.77603Z" fill="white"/>
</svg>
