<svg width="32" height="32" viewBox="0 0 32 32" fill="none" xmlns="http://www.w3.org/2000/svg">
<path d="M12.7 4.76266L13.9027 7.43732C14.2166 8.13573 14.3041 8.91489 14.1527 9.66551C14.0013 10.4161 13.6188 11.1005 13.0587 11.6227L11.0667 13.48C11.0085 13.5343 10.9716 13.6076 10.9627 13.6867C10.904 14.216 11.2627 15.2467 12.0894 16.68C12.6907 17.7213 13.236 18.4533 13.6987 18.8627C14.0214 19.1493 14.1987 19.2107 14.2747 19.1893L16.9547 18.3693C17.6868 18.1452 18.4706 18.1558 19.1964 18.3997C19.9221 18.6436 20.5533 19.1085 21.0014 19.7293L22.708 22.0973C23.2274 22.8174 23.4679 23.7016 23.3848 24.5855C23.3016 25.4695 22.9006 26.2933 22.256 26.904L21.0747 28.024C20.4477 28.6177 19.6777 29.039 18.8395 29.2467C18.0014 29.4544 17.1237 29.4415 16.292 29.2093C12.62 28.184 9.32802 25.0853 6.37869 19.9773C3.42536 14.8627 2.38936 10.4573 3.34402 6.75999C3.55893 5.92844 3.98441 5.16626 4.57946 4.54692C5.17451 3.92758 5.91906 3.47197 6.74136 3.22399L8.29736 2.75599C9.14974 2.49896 10.0665 2.56083 10.8767 2.93007C11.6868 3.29931 12.3349 3.95069 12.7 4.76266ZM8.87469 4.66932L7.31869 5.13999C6.82546 5.2886 6.3788 5.56171 6.02173 5.93302C5.66467 6.30433 5.40923 6.76132 5.28002 7.25999C4.47736 10.3693 5.39602 14.2747 8.11069 18.9773C10.8214 23.6733 13.74 26.42 16.8307 27.284C17.3295 27.4229 17.8559 27.4304 18.3584 27.3056C18.861 27.1808 19.3227 26.9281 19.6987 26.572L20.8814 25.452C21.1744 25.1744 21.3568 24.7998 21.3946 24.3979C21.4323 23.996 21.3229 23.594 21.0867 23.2667L19.38 20.9C19.1764 20.6176 18.8894 20.4061 18.5594 20.2951C18.2294 20.1842 17.8729 20.1793 17.54 20.2813L14.8534 21.104C13.2934 21.568 11.8774 20.3133 10.3574 17.68C9.33336 15.9067 8.85602 14.5333 8.97469 13.4653C9.03736 12.9107 9.29469 12.3987 9.70269 12.0173L11.6947 10.16C11.9494 9.92268 12.1234 9.61157 12.1923 9.27033C12.2611 8.92909 12.2214 8.57484 12.0787 8.25732L10.876 5.58266C10.7101 5.21387 10.4156 4.91801 10.0477 4.75022C9.67972 4.58242 9.26329 4.55415 8.87602 4.67066L8.87469 4.66932ZM22.864 2.67199L23 2.66266C23.2419 2.66271 23.4755 2.75041 23.6577 2.90952C23.8398 3.06862 23.9581 3.28834 23.9907 3.52799L24 3.66266V8.00132L28.336 8.00266C28.5777 8.00267 28.8111 8.09018 28.9933 8.24901C29.1754 8.40785 29.2938 8.62725 29.3267 8.86666L29.336 9.00266C29.336 9.24431 29.2485 9.47778 29.0897 9.6599C28.9308 9.84202 28.7114 9.96046 28.472 9.99332L28.336 10.0027H24V14.3333C24.0003 14.5752 23.913 14.809 23.7541 14.9914C23.5952 15.1738 23.3757 15.2924 23.136 15.3253L23 15.3333C22.7584 15.3333 22.5249 15.2458 22.3428 15.087C22.1607 14.9281 22.0422 14.7087 22.0094 14.4693L22 14.3333V10.0013L17.664 10.0027C17.4224 10.0026 17.1889 9.91513 17.0068 9.7563C16.8247 9.59747 16.7062 9.37806 16.6734 9.13866L16.664 9.00266C16.6641 8.76081 16.7518 8.52717 16.9109 8.34502C17.07 8.16288 17.2897 8.04456 17.5294 8.01199L17.664 8.00266H22V3.66132C22 3.41967 22.0875 3.1862 22.2464 3.00408C22.4052 2.82197 22.6246 2.70352 22.864 2.67066L23 2.66132L22.864 2.67066V2.67199Z" fill="white"/>
</svg>
